<?xml version="1.0" standalone="no"?>
<!DOCTYPE svg PUBLIC "-//W3C//DTD SVG 20010904//EN"
 "http://www.w3.org/TR/2001/REC-SVG-20010904/DTD/svg10.dtd">
<svg version="1.0" xmlns="http://www.w3.org/2000/svg"
 width="460.000000pt" height="460.000000pt" viewBox="0 0 460.000000 460.000000"
 preserveAspectRatio="xMidYMid meet">
<metadata>
Created by potrace 1.14, written by Peter Selinger 2001-2017
</metadata>
<g transform="translate(0.000000,460.000000) scale(0.100000,-0.100000)"
fill="#000000" stroke="none">
<path d="M3636 4349 c-10 -10 -23 -16 -27 -13 -11 6 -27 -28 -22 -46 13 -45
26 -59 57 -58 47 0 66 7 59 24 -3 8 0 20 6 28 15 17 6 36 -27 62 -26 20 -28
20 -46 3z"/>
<path d="M2187 4344 c-1 -1 -27 -5 -57 -8 -88 -10 -123 -15 -150 -21 -14 -4
-36 -8 -50 -11 -14 -3 -39 -9 -57 -15 -17 -5 -44 -12 -59 -15 -15 -3 -35 -9
-46 -15 -10 -5 -18 -7 -18 -4 0 3 -18 -4 -40 -15 -21 -11 -44 -20 -50 -20 -14
0 -155 -68 -201 -96 -20 -13 -39 -20 -43 -17 -3 3 -8 -2 -12 -11 -3 -9 -11
-16 -18 -16 -20 0 -195 -138 -264 -209 -99 -101 -212 -246 -212 -271 0 -6 -4
-10 -8 -10 -9 0 -132 -241 -132 -259 0 -7 -5 -22 -12 -34 -7 -12 -13 -26 -14
-32 -2 -5 -12 -46 -23 -91 -20 -83 -29 -126 -30 -157 -1 -20 -28 -32 -94 -41
-49 -7 -117 -34 -117 -47 0 -4 -7 -14 -15 -22 -8 -8 -16 -27 -19 -41 -3 -15
-18 -48 -34 -74 -40 -66 -44 -88 -43 -247 2 -196 9 -282 26 -315 22 -42 18
-71 -15 -110 -17 -19 -30 -42 -30 -52 0 -10 -4 -18 -9 -18 -13 0 -14 -64 -13
-655 1 -225 1 -428 1 -450 0 -22 2 -136 4 -254 4 -208 4 -215 -20 -280 -22
-59 -29 -80 -49 -156 -8 -31 -12 -53 -32 -157 l-19 -98 2094 0 2094 0 -6 58
c-4 31 -11 71 -16 87 -7 25 -22 85 -44 175 -2 8 -4 15 -5 15 -1 0 -3 7 -5 15
-1 8 -12 38 -24 67 -11 29 -21 67 -21 85 -4 110 8 407 17 422 10 18 6 66 -6
66 -7 0 -5 781 2 833 2 15 7 30 10 34 4 3 3 11 -2 17 -6 7 -11 41 -12 76 -3
86 -15 128 -48 170 -27 33 -46 90 -31 90 7 0 31 73 29 87 -1 4 0 10 1 13 6 15
9 82 11 230 1 150 0 169 -20 213 -12 26 -25 47 -30 47 -4 0 -15 24 -24 54 -19
59 -48 98 -75 101 -9 1 -29 7 -43 13 -14 6 -47 13 -73 17 -33 5 -50 14 -58 29
-6 11 -10 22 -9 24 1 1 0 15 -3 30 -3 15 -7 38 -10 52 -11 69 -61 226 -77 246
-6 8 -9 14 -5 14 7 0 -80 171 -117 231 -77 124 -216 281 -317 357 -19 15 -37
30 -40 33 -31 39 -371 229 -410 229 -6 0 -21 5 -33 12 -12 7 -26 13 -32 15 -5
1 -61 16 -123 33 -161 43 -213 50 -420 54 -78 1 -143 1 -145 0z"/>
<path d="M3885 4143 c-33 -37 -36 -38 -99 -36 -57 2 -66 -1 -71 -18 -4 -12 2
-36 14 -60 22 -41 23 -67 4 -91 -17 -20 -24 -53 -17 -73 6 -15 15 -17 67 -11
l60 6 43 -45 c23 -25 46 -45 51 -45 12 0 44 62 52 101 5 25 17 40 46 57 22 12
45 26 52 30 7 4 10 17 7 30 -4 12 -10 19 -15 16 -5 -3 -9 -1 -9 5 0 11 -39 27
-55 22 -5 -1 -7 1 -3 5 4 4 1 12 -6 18 -8 6 -16 29 -19 51 -7 58 -14 70 -43
73 -18 1 -35 -9 -59 -35z"/>
<path d="M536 4126 c-14 -19 -26 -39 -26 -45 0 -10 -14 -15 -32 -12 -5 0 -8
-4 -8 -10 0 -5 -4 -7 -10 -4 -5 3 -10 2 -10 -4 0 -6 -7 -8 -15 -5 -26 10 -29
-25 -6 -57 18 -25 22 -40 18 -79 -6 -67 7 -78 72 -55 48 18 49 18 79 -3 16
-12 35 -22 41 -22 17 0 32 37 28 67 -4 26 19 83 34 83 12 0 17 37 7 54 -5 9
-20 16 -34 16 -25 0 -74 43 -74 65 0 7 -8 19 -19 29 -17 16 -20 15 -45 -18z"/>
<path d="M319 3718 c-19 -12 -36 -20 -39 -19 -3 1 -6 -8 -6 -19 -1 -11 2 -20
5 -20 4 0 7 -12 6 -27 0 -25 4 -28 31 -29 18 -1 39 -4 47 -7 11 -4 18 1 23 16
3 12 13 30 21 39 13 15 11 20 -20 51 l-35 35 -33 -20z"/>
<path d="M4071 3595 l-33 -34 31 -40 c19 -24 38 -38 49 -36 78 16 74 10 71 98
0 12 -11 20 -30 24 -16 3 -32 10 -35 14 -8 14 -17 10 -53 -26z"/>
<path d="M525 3416 c-6 -6 -15 -22 -21 -36 -14 -32 4 -52 52 -56 26 -2 35 2
40 19 17 48 11 65 -24 72 -12 2 -25 6 -30 8 -4 3 -12 0 -17 -7z"/>
<path d="M4187 3344 c-35 -19 -35 -67 0 -89 13 -9 23 -12 23 -8 0 5 4 2 8 -4
6 -9 16 -6 39 14 l31 27 -22 33 c-11 18 -27 31 -34 28 -7 -3 -10 0 -7 5 9 14
-5 12 -38 -6z"/>
</g>
</svg>
